<?xml version="1.0" standalone="no"?>
<!DOCTYPE svg PUBLIC "-//W3C//DTD SVG 20010904//EN"
 "http://www.w3.org/TR/2001/REC-SVG-20010904/DTD/svg10.dtd">
<svg version="1.0" xmlns="http://www.w3.org/2000/svg"
 width="869.000000pt" height="933.000000pt" viewBox="0 0 869.000000 933.000000"
 preserveAspectRatio="xMidYMid meet">

<g transform="translate(0.000000,933.000000) scale(0.100000,-0.100000)"
fill="#000000" stroke="none">
<path d="M5439 8775 c-218 -195 -539 -419 -571 -399 -7 4 -8 3 -4 -4 7 -11
-151 -98 -161 -88 -3 2 -13 -3 -23 -12 -37 -34 -49 -42 -62 -42 -7 0 -57 -20
-112 -45 -54 -25 -103 -42 -109 -38 -6 3 -7 1 -3 -5 8 -14 -82 -53 -153 -67
-11 -2 -60 -20 -108 -40 -49 -20 -108 -44 -132 -53 -24 -9 -59 -35 -79 -56
-24 -28 -55 -47 -99 -63 -88 -32 -99 -29 -55 12 l37 35 -70 -26 c-38 -14 -81
-30 -95 -36 -14 -6 -34 -13 -45 -15 -32 -6 -199 -65 -212 -75 -7 -6 -17 -7
-22 -4 -5 4 -12 2 -16 -4 -3 -5 -25 -18 -50 -29 -57 -25 -652 -487 -641 -498
2 -2 31 9 63 26 75 37 181 73 194 66 5 -4 9 -1 9 5 0 7 6 10 13 7 7 -3 19 4
26 15 9 15 19 18 38 13 22 -5 49 12 185 115 131 100 159 118 164 103 19 -59
34 -82 97 -151 80 -88 183 -222 192 -252 9 -28 28 -25 20 3 -19 64 -70 154
-142 248 -116 153 -126 198 -55 260 46 41 109 68 312 136 532 178 1096 454
1448 708 46 33 96 67 110 75 15 8 28 18 30 22 2 4 34 37 71 75 75 76 93 103
82 122 -6 9 -26 -3 -72 -44z m-749 -549 c0 -2 -7 -7 -16 -10 -8 -3 -12 -2 -9
4 6 10 25 14 25 6z m-56 -31 c-27 -20 -51 -20 -34 0 7 8 22 15 33 15 20 0 20
0 1 -15z m-167 -76 c-43 -25 -158 -67 -155 -57 2 6 24 18 49 26 24 8 58 20 74
28 36 15 57 18 32 3z m-1114 -479 c-6 -22 -21 -35 -30 -26 -5 5 24 46 33 46 1
0 0 -9 -3 -20z"/>
<path d="M5716 8720 c24 -44 262 -290 280 -290 36 0 8 34 -152 186 -102 96
-142 128 -128 104z"/>
<path d="M5630 8676 c-1 -24 220 -295 248 -304 22 -7 2 24 -86 128 -107 128
-161 187 -162 176z"/>
<path d="M5360 8594 c0 -11 42 -75 47 -71 2 3 -6 21 -18 41 -20 34 -29 44 -29
30z"/>
<path d="M5650 8564 c0 -14 169 -213 191 -224 35 -19 20 5 -60 95 -87 100
-131 143 -131 129z"/>
<path d="M5840 8505 c0 -26 104 -124 117 -111 4 3 -4 18 -18 32 -31 34 -99 88
-99 79z"/>
<path d="M5640 8488 c0 -20 59 -84 122 -133 34 -27 54 -38 43 -25 -40 49 -165
168 -165 158z"/>
<path d="M5550 8479 c0 -29 125 -187 137 -175 3 3 -23 40 -58 83 -76 95 -79
98 -79 92z"/>
<path d="M5290 8281 c0 -6 4 -13 10 -16 6 -3 7 1 4 9 -7 18 -14 21 -14 7z"/>
<path d="M5246 8240 c20 -33 101 -127 88 -100 -13 26 -83 118 -95 126 -7 4 -3
-8 7 -26z"/>
<path d="M5029 8023 c29 -57 105 -155 80 -104 -16 33 -99 161 -105 161 -2 0 9
-26 25 -57z"/>
<path d="M4572 7819 c18 -33 46 -75 61 -92 l29 -32 -23 40 c-39 68 -89 145
-95 145 -3 0 10 -27 28 -61z"/>
<path d="M5080 7854 c0 -5 11 -22 25 -39 16 -20 24 -25 25 -14 0 8 -11 26 -25
39 -14 13 -25 19 -25 14z"/>
<path d="M4501 7830 c14 -31 19 -36 19 -24 0 6 -7 19 -16 30 -14 18 -14 18 -3
-6z"/>
<path d="M4399 7660 c21 -55 66 -136 81 -145 5 -3 4 7 -3 22 -25 56 -87 173
-92 173 -3 0 4 -22 14 -50z"/>
<path d="M4470 7692 c0 -15 82 -177 105 -208 31 -41 15 18 -26 95 -45 85 -78
133 -79 113z"/>
<path d="M4820 7663 c0 -5 9 -18 20 -28 11 -10 20 -14 20 -8 0 5 -9 18 -20 28
-11 10 -20 14 -20 8z"/>
<path d="M4360 7627 c0 -14 61 -129 66 -124 3 3 -6 27 -20 54 -30 56 -46 81
-46 70z"/>
<path d="M2934 7561 c8 -12 -22 -23 -37 -14 -7 3 -9 3 -5 -2 10 -10 -10 -35
-28 -35 -28 0 -102 -64 -231 -200 -125 -132 -150 -161 -120 -144 24 15 473
373 486 388 12 14 9 16 -28 16 -23 0 -40 -4 -37 -9z"/>
<path d="M3790 7548 c0 -4 9 -30 20 -57 11 -28 17 -57 14 -66 -6 -15 71 -211
87 -221 5 -3 9 3 9 13 1 15 3 15 21 -6 30 -36 34 -18 9 41 -54 127 -159 320
-160 296z"/>
<path d="M3228 7452 c-90 -62 -118 -92 -85 -92 15 0 188 116 199 134 7 11 1
26 -10 25 -4 0 -51 -30 -104 -67z"/>
<path d="M7134 7320 c0 -113 2 -159 3 -102 2 56 2 148 0 205 -1 56 -3 10 -3
-103z"/>
<path d="M4031 7490 c14 -31 19 -36 19 -24 0 6 -7 19 -16 30 -14 18 -14 18 -3
-6z"/>
<path d="M2720 7465 c-7 -8 -8 -15 -2 -15 5 0 15 7 22 15 7 8 8 15 2 15 -5 0
-15 -7 -22 -15z"/>
<path d="M3295 7439 c-22 -17 -48 -37 -59 -44 -26 -19 -12 -39 17 -24 42 22
106 74 107 87 0 20 -22 13 -65 -19z"/>
<path d="M3317 7403 c-35 -25 -47 -43 -29 -43 11 0 92 58 92 65 0 13 -29 3
-63 -22z"/>
<path d="M3356 7387 c-32 -26 -45 -63 -19 -53 8 3 21 -1 29 -9 8 -8 21 -12 29
-9 8 4 29 1 46 -5 18 -6 34 -9 37 -6 5 5 -77 105 -86 105 -4 0 -20 -11 -36
-23z"/>
<path d="M3935 7385 c11 -50 74 -177 84 -170 14 8 -19 87 -70 168 l-21 32 7
-30z"/>
<path d="M3780 7395 c0 -17 74 -177 78 -167 4 13 -56 160 -69 168 -5 3 -9 2
-9 -1z"/>
<path d="M3705 7350 c3 -14 8 -38 12 -54 4 -21 3 -27 -5 -22 -18 11 -15 -17 9
-76 23 -59 49 -94 49 -66 0 9 5 18 11 20 7 2 5 20 -7 53 -21 63 -76 178 -69
145z"/>
<path d="M3058 7343 c7 -3 16 -2 19 1 4 3 -2 6 -13 5 -11 0 -14 -3 -6 -6z"/>
<path d="M3243 7343 c9 -2 23 -2 30 0 6 3 -1 5 -18 5 -16 0 -22 -2 -12 -5z"/>
<path d="M6000 7285 c0 -16 6 -25 16 -25 11 0 14 5 10 16 -3 9 -6 20 -6 25 0
5 -4 9 -10 9 -5 0 -10 -11 -10 -25z"/>
<path d="M3791 7230 c6 -16 15 -32 20 -35 4 -3 3 8 -2 25 -6 16 -15 32 -20 35
-4 3 -3 -8 2 -25z"/>
<path d="M5340 7229 c0 -5 5 -7 10 -4 6 3 10 8 10 11 0 2 -4 4 -10 4 -5 0 -10
-5 -10 -11z"/>
<path d="M2370 7100 c0 -5 5 -10 11 -10 5 0 7 5 4 10 -3 6 -8 10 -11 10 -2 0
-4 -4 -4 -10z"/>
<path d="M5966 7101 c-4 -5 -2 -12 3 -15 5 -4 12 -2 15 3 4 5 2 12 -3 15 -5 4
-12 2 -15 -3z"/>
<path d="M4960 7073 c0 -10 -3 -28 -6 -40 -5 -18 -2 -22 15 -20 21 1 28 28 15
61 -8 21 -24 20 -24 -1z"/>
<path d="M2170 7061 c-19 -8 -36 -16 -38 -17 -2 -1 -5 -8 -6 -16 -1 -7 -8 -31
-15 -54 -12 -37 -11 -46 8 -89 11 -26 21 -53 21 -59 0 -6 21 -19 46 -28 59
-21 96 -10 146 46 34 38 37 46 38 102 0 51 -4 64 -23 82 -13 12 -26 19 -29 16
-6 -6 -66 10 -98 26 -8 4 -31 0 -50 -9z m70 -62 c0 -18 -54 -89 -67 -89 -16 0
-17 34 -2 61 15 28 69 50 69 28z m67 -81 c-3 -8 -6 -5 -6 6 -1 11 2 17 5 13 3
-3 4 -12 1 -19z m-20 -33 c-4 -8 -14 -15 -23 -15 -16 0 -16 2 1 20 20 22 31
20 22 -5z"/>
<path d="M5332 6969 c2 -7 10 -15 17 -17 8 -3 12 1 9 9 -2 7 -10 15 -17 17 -8
3 -12 -1 -9 -9z"/>
<path d="M2044 6930 c-72 -75 -114 -129 -237 -315 -250 -375 -431 -850 -494
-1295 -13 -96 -18 -192 -18 -410 0 -297 10 -405 56 -635 24 -121 97 -397 109
-408 18 -20 19 15 0 75 -34 111 -79 309 -104 458 -98 578 -35 1125 189 1665
78 189 211 445 231 445 2 0 -32 -71 -76 -157 -214 -428 -311 -780 -341 -1234
-19 -275 8 -596 77 -909 15 -69 31 -129 35 -134 20 -22 20 9 1 86 -23 93 -54
265 -74 408 -8 61 -13 199 -13 385 1 249 4 310 23 430 37 238 104 476 194 693
38 92 47 89 12 -4 -83 -218 -147 -466 -176 -684 -29 -217 -31 -584 -5 -795 19
-150 73 -428 88 -457 6 -10 16 -15 25 -11 19 7 17 31 -21 213 -49 241 -59 345
-59 640 0 236 3 296 22 424 74 487 278 980 564 1369 42 56 49 72 44 95 -4 15
-10 39 -13 55 -6 32 -13 34 -39 7z"/>
<path d="M6555 6900 c3 -5 8 -10 11 -10 2 0 4 5 4 10 0 6 -5 10 -11 10 -5 0
-7 -4 -4 -10z"/>
<path d="M4598 6763 c7 -3 16 -2 19 1 4 3 -2 6 -13 5 -11 0 -14 -3 -6 -6z"/>
<path d="M1669 6733 c-13 -16 -12 -17 4 -4 9 7 17 15 17 17 0 8 -8 3 -21 -13z"/>
<path d="M3320 6725 c0 -14 5 -25 10 -25 6 0 10 11 10 25 0 14 -4 25 -10 25
-5 0 -10 -11 -10 -25z"/>
<path d="M4295 6720 c-3 -5 -1 -10 4 -10 6 0 11 5 11 10 0 6 -2 10 -4 10 -3 0
-8 -4 -11 -10z"/>
<path d="M2794 6550 c0 -80 2 -112 3 -72 2 39 2 105 0 145 -1 39 -3 7 -3 -73z"/>
<path d="M3865 6631 c-3 -5 -1 -12 5 -16 5 -3 10 1 10 9 0 18 -6 21 -15 7z"/>
<path d="M3695 6610 c3 -5 8 -10 11 -10 2 0 4 5 4 10 0 6 -5 10 -11 10 -5 0
-7 -4 -4 -10z"/>
<path d="M1455 6566 c-143 -104 -350 -209 -565 -288 -115 -42 -78 -43 55 -1
178 56 575 273 575 315 0 10 -1 18 -2 18 -2 0 -30 -20 -63 -44z"/>
<path d="M3285 6530 c-3 -5 -1 -10 4 -10 6 0 11 5 11 10 0 6 -2 10 -4 10 -3 0
-8 -4 -11 -10z"/>
<path d="M6790 6479 c0 -5 5 -7 10 -4 6 3 10 8 10 11 0 2 -4 4 -10 4 -5 0 -10
-5 -10 -11z"/>
<path d="M2794 6205 c0 -88 2 -123 3 -77 2 46 2 118 0 160 -1 42 -3 5 -3 -83z"/>
<path d="M3425 6240 c-3 -5 -1 -10 4 -10 6 0 11 5 11 10 0 6 -2 10 -4 10 -3 0
-8 -4 -11 -10z"/>
<path d="M5995 6150 c3 -5 8 -10 11 -10 2 0 4 5 4 10 0 6 -5 10 -11 10 -5 0
-7 -4 -4 -10z"/>
<path d="M6786 5855 c-33 -447 -33 -1867 0 -2250 35 -394 63 1250 35 1984 -13
336 -24 417 -35 266z"/>
<path d="M4451 5834 c0 -11 3 -14 6 -6 3 7 2 16 -1 19 -3 4 -6 -2 -5 -13z"/>
<path d="M2292 5769 c2 -6 8 -10 13 -10 5 0 11 4 13 10 2 6 -4 11 -13 11 -9 0
-15 -5 -13 -11z"/>
<path d="M4966 5743 c-39 -56 -83 -179 -102 -280 -64 -355 16 -726 183 -846
24 -17 46 -28 49 -24 4 3 -10 25 -29 48 -88 102 -136 292 -144 574 -6 213 10
365 52 490 13 39 22 71 20 73 -2 2 -15 -14 -29 -35z"/>
<path d="M3075 5700 c4 -6 11 -8 16 -5 14 9 11 15 -7 15 -8 0 -12 -5 -9 -10z"/>
<path d="M5772 5635 c0 -16 2 -22 5 -12 2 9 2 23 0 30 -3 6 -5 -1 -5 -18z"/>
<path d="M6010 5300 c0 -5 5 -10 10 -10 6 0 10 5 10 10 0 6 -4 10 -10 10 -5 0
-10 -4 -10 -10z"/>
<path d="M3077 5115 c-39 -291 -38 -2130 2 -2316 44 -204 56 1944 13 2301 l-8
65 -7 -50z"/>
<path d="M2307 5123 c-29 -44 -43 -2006 -19 -2632 11 -280 14 -322 26 -310 10
10 27 631 33 1184 8 725 -16 1794 -40 1758z"/>
<path d="M5603 4643 c9 -2 23 -2 30 0 6 3 -1 5 -18 5 -16 0 -22 -2 -12 -5z"/>
<path d="M3945 4140 c0 -278 1 -391 2 -253 2 139 2 367 0 505 -1 139 -2 26 -2
-252z"/>
<path d="M6350 4595 c-8 -9 -8 -15 -2 -15 12 0 26 19 19 26 -2 2 -10 -2 -17
-11z"/>
<path d="M6030 4520 c-13 -8 -12 -10 3 -10 9 0 17 5 17 10 0 12 -1 12 -20 0z"/>
<path d="M5283 4363 c9 -2 23 -2 30 0 6 3 -1 5 -18 5 -16 0 -22 -2 -12 -5z"/>
<path d="M1610 4144 c-1 -12 -17 -27 -43 -40 -53 -26 -79 -70 -79 -133 0 -94
61 -154 156 -155 28 -1 57 -5 64 -9 8 -6 27 4 55 29 47 42 64 91 66 182 1 44
-2 52 -17 52 -10 0 -33 15 -51 34 -23 24 -44 35 -75 39 -23 3 -50 9 -59 13
-12 4 -17 1 -17 -12z m40 -105 c0 -10 -69 -103 -80 -107 -13 -5 -17 31 -8 66
6 24 18 37 41 47 32 13 47 12 47 -6z m64 -111 c-4 -13 -7 -26 -6 -30 3 -12
-31 -26 -61 -26 l-28 1 29 17 c17 10 38 30 48 43 22 29 29 28 18 -5z m22 -3
c-4 -14 -12 -25 -18 -25 -9 0 -9 3 0 12 7 7 12 21 12 32 0 10 3 17 6 13 4 -3
4 -18 0 -32z"/>
<path d="M5977 3853 c-7 -299 -23 -492 -53 -624 -9 -39 -13 -73 -10 -76 8 -8
59 105 85 188 63 198 68 576 10 758 -6 20 -15 40 -19 44 -4 4 -10 -126 -13
-290z"/>
<path d="M5772 4020 c0 -14 2 -19 5 -12 2 6 2 18 0 25 -3 6 -5 1 -5 -13z"/>
<path d="M3498 3923 c6 -2 18 -2 25 0 6 3 1 5 -13 5 -14 0 -19 -2 -12 -5z"/>
<path d="M2550 3890 c0 -5 7 -10 16 -10 8 0 12 5 9 10 -3 6 -10 10 -16 10 -5
0 -9 -4 -9 -10z"/>
<path d="M4882 3619 c2 -6 8 -10 13 -10 5 0 11 4 13 10 2 6 -4 11 -13 11 -9 0
-15 -5 -13 -11z"/>
<path d="M5772 3400 c0 -14 2 -19 5 -12 2 6 2 18 0 25 -3 6 -5 1 -5 -13z"/>
<path d="M4651 3344 c0 -11 3 -14 6 -6 3 7 2 16 -1 19 -3 4 -6 -2 -5 -13z"/>
<path d="M7758 3093 c7 -3 16 -2 19 1 4 3 -2 6 -13 5 -11 0 -14 -3 -6 -6z"/>
<path d="M7545 2970 c-11 -5 -63 -9 -115 -9 -77 -1 -101 -5 -125 -21 -18 -12
-47 -20 -72 -20 -23 0 -68 -7 -100 -16 -32 -9 -76 -20 -98 -25 -22 -4 -60 -13
-85 -19 -25 -6 -58 -14 -75 -16 -16 -3 -39 -9 -50 -13 -48 -19 -93 -31 -119
-31 -15 0 -44 -9 -64 -19 -20 -11 -71 -30 -112 -42 -41 -12 -79 -26 -85 -31
-5 -4 -16 -8 -25 -8 -10 0 -30 -7 -47 -15 -17 -8 -61 -26 -99 -40 -38 -14 -70
-30 -72 -35 -2 -6 -15 -10 -30 -10 -25 0 -81 -22 -154 -60 -20 -11 -46 -20
-56 -20 -19 0 -49 -26 -41 -34 8 -9 96 18 150 45 31 16 67 29 80 29 27 0 86
20 174 57 93 39 98 41 128 47 15 3 39 9 55 12 15 3 36 9 47 13 63 25 125 45
165 53 25 5 57 11 73 15 15 3 30 9 33 14 3 5 23 9 44 9 21 0 41 4 44 9 3 5 20
12 38 15 18 4 56 11 83 17 28 5 75 14 105 18 30 5 73 15 95 21 22 7 81 16 130
21 50 4 113 13 140 20 65 16 554 24 569 9 5 -5 29 -10 53 -10 23 0 68 -7 100
-17 32 -9 82 -18 111 -21 51 -4 53 -3 43 15 -9 19 -70 43 -105 43 -9 0 -34 9
-56 20 -29 15 -59 20 -114 20 -41 0 -78 5 -81 10 -8 12 -451 12 -480 0z"/>
<path d="M5378 2903 c6 -2 18 -2 25 0 6 3 1 5 -13 5 -14 0 -19 -2 -12 -5z"/>
<path d="M3070 2220 c0 -5 7 -10 16 -10 8 0 12 5 9 10 -3 6 -10 10 -16 10 -5
0 -9 -4 -9 -10z"/>
<path d="M3850 1474 l-45 -13 55 6 c61 6 67 8 48 15 -7 3 -33 -1 -58 -8z"/>
<path d="M3768 1453 c6 -2 18 -2 25 0 6 3 1 5 -13 5 -14 0 -19 -2 -12 -5z"/>
<path d="M1781 1404 c0 -11 3 -14 6 -6 3 7 2 16 -1 19 -3 4 -6 -2 -5 -13z"/>
<path d="M1623 1123 c-23 -9 -14 -33 12 -33 27 0 28 1 19 24 -6 17 -11 18 -31
9z"/>
<path d="M5148 653 c7 -3 16 -2 19 1 4 3 -2 6 -13 5 -11 0 -14 -3 -6 -6z"/>
</g>
</svg>
